<svg version="1.0" xmlns="http://www.w3.org/2000/svg" xmlns:xlink="http://www.w3.org/1999/xlink" viewBox="0 0 128 128">
    <g mask="url(#mask2)">
        <rect width="128" height="128" fill="url(#linearGradient)"></rect>
    </g>
    <defs>
        <filter id="filter1">
            <feColorMatrix type="matrix" values="0 0 0 0 0.99609375  0 0 0 0 0.99609375  0 0 0 0 0.99609375  0 0 0 1 0"></feColorMatrix>
        </filter>
        <linearGradient id="linearGradient">
            <stop offset="0%" stop-color="#a18cd1"></stop>
            <stop offset="100%" stop-color="#fbc2eb"></stop>
        </linearGradient>
    </defs>
    <mask id="mask2">
        <g filter="url(#filter1)">
            <g mask="url(#mask3)">
                <path d="M0 30a30 30 0 0 1 30 -30h68a30 30 0 0 1 30 30v68a30 30 0 0 1 -30 30h-68a30 30 0 0 1 -30 -30z"></path>
            </g>
            <mask id="mask3">
                <g fill="white">
                    <path d="M0 30a30 30 0 0 1 30 -30h68a30 30 0 0 1 30 30v68a30 30 0 0 1 -30 30h-68a30 30 0 0 1 -30 -30z"></path>
                </g>
                <g fill="#000000">
                    <path transform="translate(18 89) scale(1.5 1.5)" d="M15.05-35.16L15.05-35.16L15.19-35.16Q16.80-35.02 18.42-32.70L18.42-32.70L18.42-31.15Q17.79-28.55 17.09-26.79L17.09-26.79L17.30-26.44Q16.31-25.24 16.31-23.98L16.31-23.98Q15.75-23.98 14.63-20.53L14.63-20.53Q14.41-20.53 14.27-19.97L14.27-19.97Q14.41-19.62 14.41-19.41L14.41-19.41L14.63-19.41Q26.16-30.23 29.25-30.23L29.25-30.23L29.67-30.23Q35.72-27.77 35.72-22.64L35.72-22.64L34.95-18.84Q35.23-18.84 41.20-25.24L41.20-25.24Q47.53-31.64 51.68-34.80L51.68-34.80Q56.25-32.55 57.02-29.81L57.02-29.81L57.02-29.46Q57.02-27 55.13-22.08L55.13-22.08Q51.68-12.66 50.34-4.92L50.34-4.92L51.33-4.78L56.81-5.48Q57.66-5.13 57.80-4.78L57.80-4.78L57.80-4.01Q54.49 0 52.24 0L52.24 0L52.10 0Q48.59 0 43.73-6.68L43.73-6.68Q43.17-8.72 43.17-9.70L43.17-9.70L43.17-10.27Q43.17-14.41 45.42-20.88L45.42-20.88L45.42-21.09L45.21-21.09Q44.86-21.09 38.18-13.71L38.18-13.71Q31.64-6.19 30.23-1.55L30.23-1.55L29.81-1.34L29.25-1.34Q24.82-2.95 22.64-7.03L22.64-7.03L22.43-8.02Q24.12-15.05 24.68-16.31L24.68-16.31Q26.23-19.76 26.58-21.45L26.58-21.45Q25.80-21.45 21.66-17.65L21.66-17.65Q17.44-13.71 14.06-9.70L14.06-9.70Q9.35-3.66 7.80-0.21L7.80-0.21L7.38 0Q2.88-1.27 0.21-5.91L0.21-5.91Q0-6.26 0-6.68L0-6.68L0-7.24Q1.05-11.46 3.59-16.17L3.59-16.17Q8.79-24.26 10.48-28.48L10.48-28.48Q13.43-33.75 15.05-35.16L15.05-35.16Z"></path>
                </g>
            </mask>
        </g>
    </mask>
</svg>