<svg data-v-2cb57da0="" version="1.0" xmlns="http://www.w3.org/2000/svg" xmlns:xlink="http://www.w3.org/1999/xlink" width="100%" height="100%" viewBox="0 0 340.000000 250.000000" preserveAspectRatio="xMidYMid meet" color-interpolation-filters="sRGB" style="margin: auto;">
    <rect data-v-2cb57da0="" x="0" y="0" width="100%" height="100%" fill="#ffffff" fill-opacity="0" class="background"></rect>
    <!---->
    <g data-v-2cb57da0="" class="iconmbgsvg" transform="translate(95,59.22273254394531)">
        <g fill="#fff" hollow-target="text">
            <g mask="url(#6f695fec-f5c0-4eb5-b6ae-ff22a3813771)">
                <g>
                    <rect fill="#fff" fill-opacity="0" stroke-width="2" x="0" y="0" width="150" height="107.18573143543132" class="image-rect"></rect> <svg filter="url(#colors5422357299)" x="0" y="0" width="150" height="107.18573143543132" filtersec="colorsf5922693004" class="image-svg-svg primary" style="overflow: visible;"><svg viewBox="0 0 130 92.89399719238281" xmlns="http://www.w3.org/2000/svg">
                            <path d="M65 0c35.899 0 65 29.101 65 65 0 9.984-2.25 19.442-6.273 27.894A67.78 67.78 0 0 0 127 72c0-35.899-27.758-65-62-65C30.758 7 3 36.101 3 72a67.78 67.78 0 0 0 3.273 20.894C2.25 84.442 0 74.984 0 65 0 29.101 29.101 0 65 0z" fill="#222" fill-rule="evenodd"></path>
                        </svg></svg>
                    <defs>
                        <filter id="colors5422357299">
                            <feColorMatrix type="matrix" values="0 0 0 0 0.99609375  0 0 0 0 0.99609375  0 0 0 0 0.99609375  0 0 0 1 0" class="icon-fecolormatrix"></feColorMatrix>
                        </filter>
                        <filter id="colorsf5922693004">
                            <feColorMatrix type="matrix" values="0 0 0 0 0.99609375  0 0 0 0 0.99609375  0 0 0 0 0.99609375  0 0 0 1 0" class="icon-fecolormatrix"></feColorMatrix>
                        </filter>
                        <filter id="colorsb7114376628">
                            <feColorMatrix type="matrix" values="0 0 0 0 0  0 0 0 0 0  0 0 0 0 0  0 0 0 1 0" class="icon-fecolormatrix"></feColorMatrix>
                        </filter>
                    </defs>
                </g>
            </g>
            <g transform="translate(32.95697784423828,40.631187438964844)">
                <g data-gra="path-name" fill-rule="" class="tp-name" transform="translate(0,0)">
                    <g transform="scale(1)">
                        <g>
                            <path d="M22.08-31.83L22.08-31.83Q23.11-32.25 24.33-31.55L24.33-31.55Q25.88-30.7 25.78-28.92L25.78-28.92Q25.03-26.2 23.39-23.63L23.39-23.63Q22.73-22.5 23.86-22.5L23.86-22.5 34.73-22.55Q36.33-22.83 38.72-22.55L38.72-22.55Q40.27-22.03 40.69-19.78L40.69-19.78Q40.83-18.33 40.08-15.89L40.08-15.89Q40.27-9.19 39.75-2.06L39.75-2.06Q39.66-1.13 39.38-0.19L39.38-0.19Q38.44 1.27 35.81 0.66L35.81 0.66Q28.17-0.7 13.41 0.38L13.41 0.38Q12.56 0.47 11.53 0.98L11.53 0.98Q9.19 1.08 8.77-1.41L8.77-1.41Q8.34-3.38 8.16-8.72L8.16-8.72Q8.02-12.14 8.02-15.56L8.02-15.56Q8.34-18.47 7.97-20.77L7.97-20.77Q8.06-22.22 10.08-22.88L10.08-22.88Q11.11-22.83 13.83-22.36L13.83-22.36Q15.98-22.59 18.28-22.5L18.28-22.5Q19.41-22.5 20.16-23.91L20.16-23.91Q21.42-26.48 21.23-29.44L21.23-29.44Q21.23-30.38 21.42-31.08L21.42-31.08Q21.84-31.83 22.08-31.83ZM19.78-19.36L19.78-19.36Q15.09-19.27 12.66-18.38L12.66-18.38Q11.3-17.44 11.63-14.44L11.63-14.44Q11.63-13.31 13.03-13.08L13.03-13.08Q17.25-12.61 29.02-12.89L29.02-12.89 35.39-13.08Q36.61-13.17 36.56-14.58L36.56-14.58 36.52-16.41Q36.75-18.94 34.73-18.98L34.73-18.98Q30.14-19.64 19.78-19.36ZM35.2-9.42L35.2-9.42Q25.45-9.98 12.89-9.38L12.89-9.38Q11.67-9.28 11.72-8.2L11.72-8.2Q11.91-5.06 12.14-3.8L12.14-3.8Q12.61-3.28 13.83-3.28L13.83-3.28Q23.86-2.53 34.88-3.23L34.88-3.23Q36.09-3.52 36.33-4.88L36.33-4.88 36.56-8.11Q36.61-9.23 35.2-9.42ZM59.58-29.3L59.58-29.3Q59.95-32.25 63.14-31.83L63.14-31.83Q68.67-31.31 78.33-31.55L78.33-31.55Q80.16-31.5 81.98-31.31L81.98-31.31Q83.11-31.31 83.16-30L83.16-30Q83.25-29.3 82.27-28.73L82.27-28.73Q81.47-28.31 80.16-28.59L80.16-28.59 74.86-28.59Q73.41-28.55 73.31-27.61L73.31-27.61Q73.31-26.72 74.44-26.72L74.44-26.72Q77.91-26.77 81.38-26.67L81.38-26.67Q84.19-26.77 86.25-25.92L86.25-25.92Q89.2-24.84 88.83-21.89L88.83-21.89Q88.83-21.23 89.25-20.02L89.25-20.02Q89.77-18.38 88.97-16.73L88.97-16.73Q88.55-15.98 87.94-15.94L87.94-15.94Q86.86-15.7 86.16-17.34L86.16-17.34Q85.83-18.38 85.5-21.09L85.5-21.09Q85.31-22.13 84.94-22.78L84.94-22.78Q83.81-23.53 81-23.72L81-23.72Q77.72-23.95 74.44-24L74.44-24Q73.27-24 73.27-22.88L73.27-22.88Q73.22-19.59 73.31-16.17L73.31-16.17Q73.17-15.05 72.66-14.3L72.66-14.3Q72.09-13.36 71.2-13.88L71.2-13.88Q70.31-14.2 70.22-15.98L70.22-15.98Q70.03-19.27 70.03-22.59L70.03-22.59Q70.08-24.05 68.95-24.05L68.95-24.05Q63.28-24.05 59.16-23.3L59.16-23.3Q58.13-23.2 57.52-21.98L57.52-21.98Q57-19.92 57.09-18.05L57.09-18.05 56.91-17.11Q56.58-15.38 54.98-15.52L54.98-15.52Q54-15.7 53.58-16.59L53.58-16.59Q52.88-19.03 54.61-23.72L54.61-23.72Q55.13-26.67 58.88-26.58L58.88-26.58Q63.89-26.81 69.05-26.72L69.05-26.72Q70.17-26.72 70.13-27.7L70.13-27.7Q69.94-28.59 68.63-28.59L68.63-28.59Q66.52-28.59 64.36-28.41L64.36-28.41Q62.06-28.08 60.56-28.27L60.56-28.27Q59.67-28.69 59.58-29.3ZM75.28-22.17L75.28-22.17Q77.3-23.25 80.81-22.59L80.81-22.59Q83.06-22.78 82.88-20.86L82.88-20.86Q82.92-20.48 82.08-20.06L82.08-20.06Q80.02-20.02 77.91-19.83L77.91-19.83Q76.88-19.69 75.84-19.73L75.84-19.73Q74.06-20.77 75.28-22.17ZM62.06-22.59L62.06-22.59Q64.64-22.92 66.52-22.5L66.52-22.5Q68.34-22.13 68.48-21.84L68.48-21.84Q69.14-20.67 67.78-19.88L67.78-19.88Q67.27-19.64 65.67-19.73L65.67-19.73 61.64-19.45Q59.95-19.97 60.52-21.61L60.52-21.61Q61.08-22.31 62.06-22.59ZM76.5-18.84L76.5-18.84Q78.23-19.08 82.03-18.52L82.03-18.52Q83.48-18.28 83.06-16.92L83.06-16.92Q82.69-16.17 82.13-16.13L82.13-16.13Q79.55-16.03 76.97-15.8L76.97-15.8Q74.02-15.61 74.86-18L74.86-18Q75.38-18.7 76.5-18.84ZM60.61-17.86L60.61-17.86Q62.53-18.8 65.95-18.19L65.95-18.19Q67.31-18 67.97-17.77L67.97-17.77Q69-15.94 66.66-15.42L66.66-15.42Q64.03-15.38 61.41-15.14L61.41-15.14Q60.42-15.09 60-16.5L60-16.5Q59.91-17.2 60.61-17.86ZM63.61-13.08L63.61-13.08Q74.77-13.69 79.78-12.94L79.78-12.94Q81.89-12.84 81.19-11.02L81.19-11.02Q80.77-9.94 79.59-9.75L79.59-9.75Q72.23-11.3 63.38-9.84L63.38-9.84Q61.36-9.56 61.27-11.48L61.27-11.48Q61.69-12.75 63.61-13.08ZM62.77-7.78L62.77-7.78Q77.02-8.67 93-6.19L93-6.19Q93.56-6.09 93.8-5.95L93.8-5.95Q94.64-5.06 92.72-3L92.72-3Q91.59-1.59 89.91-2.02L89.91-2.02Q84.89-4.36 79.92-4.97L79.92-4.97Q78.89-5.11 79.97-3.56L79.97-3.56Q83.63 1.5 77.02 2.25L77.02 2.25Q72.8 2.86 68.81 2.72L68.81 2.72Q66.28 2.3 65.06 2.44L65.06 2.44Q63 3.28 61.73 0.94L61.73 0.94Q61.5-0.38 62.81-1.88L62.81-1.88Q63.84-3.09 64.64-4.31L64.64-4.31Q65.16-5.3 63.56-5.11L63.56-5.11Q57.84-4.36 53.06-2.25L53.06-2.25Q51.89-2.06 51.09-2.81L51.09-2.81Q50.3-3.47 50.81-4.69L50.81-4.69Q51.94-6.94 53.81-7.27L53.81-7.27Q57.98-7.27 62.77-7.78ZM72.75-5.53L70.64-5.53Q69.38-5.53 69.33-5.11L69.33-5.11Q68.86-3.75 66.89-2.2L66.89-2.2Q66.09-1.08 66.14-0.84L66.14-0.84Q66.38-0.61 67.78-0.28L67.78-0.28Q71.95 0.56 75.94-0.66L75.94-0.66Q77.72-0.84 76.88-2.16L76.88-2.16Q75.94-4.08 75.23-4.45L75.23-4.45Q74.2-5.48 72.75-5.53L72.75-5.53Z" transform="translate(-7.970000267028809, 31.987499237060547)"></path>
                        </g>
                        <!---->
                        <!---->
                        <!---->
                        <!---->
                        <!---->
                        <!---->
                        <g data-gra="path-name-1" fill="#fff" transform="translate(0,37.7336311340332)">
                            <g transform="scale(0.94536)">
                                <path d="M13.36-31.78L13.36-31.78Q14.63-33.23 16.45-32.25L16.45-32.25Q17.58-31.5 17.2-30.19L17.2-30.19Q17.11-29.48 18.23-29.48L18.23-29.48Q20.72-29.67 21.56-29.06L21.56-29.06Q22.45-27.98 21.52-27.28L21.52-27.28Q21.05-27.05 19.83-26.95L19.83-26.95 18.23-26.81Q17.11-26.63 16.97-25.17L16.97-25.17Q17.02-23.58 15.8-23.48L15.8-23.48Q15.42-23.48 15.05-23.86L15.05-23.86Q14.67-24.33 14.3-25.27L14.3-25.27Q14.06-26.34 12.75-26.3L12.75-26.3Q11.16-26.16 9.52-25.83L9.52-25.83Q8.34-25.36 7.41-26.02L7.41-26.02Q6.05-27.66 9-29.11L9-29.11Q10.64-30.23 12.47-29.86L12.47-29.86Q13.59-29.72 13.31-30.33L13.31-30.33Q12.84-31.08 13.36-31.78ZM30.61-30.61L30.61-30.61Q31.03-32.95 33.33-32.3L33.33-32.3Q35.06-31.08 34.36-29.81L34.36-29.81Q33.98-29.25 35.48-29.2L35.48-29.2Q37.13-29.16 38.91-28.97L38.91-28.97Q41.25-28.83 42.09-28.45L42.09-28.45Q42.84-27.33 40.97-25.78L40.97-25.78Q39.42-24.75 38.44-24.98L38.44-24.98Q36.8-25.55 34.08-26.25L34.08-26.25Q33.09-26.39 32.63-24.84L32.63-24.84Q32.34-22.73 30.42-23.63L30.42-23.63Q29.81-24.33 30-25.41L30-25.41Q30.14-26.63 29.11-26.63L29.11-26.63 27.47-26.53Q26.11-26.34 25.83-26.44L25.83-26.44Q24.94-27.05 25.17-27.98L25.17-27.98Q25.27-28.78 26.34-29.34L26.34-29.34Q27.8-29.44 29.25-29.34L29.25-29.34Q30.52-29.34 30.61-30.61ZM21.61-26.2L21.61-26.2Q22.45-27.33 23.91-26.2L23.91-26.2Q24.61-25.5 25.73-24.98L25.73-24.98Q38.02-19.17 44.48-17.11L44.48-17.11Q45.42-16.88 46.27-16.45L46.27-16.45Q48.05-15.14 45.75-13.97L45.75-13.97Q43.03-12.61 40.69-13.5L40.69-13.5Q38.86-15 36.98-16.31L36.98-16.31Q34.17-18.14 30.8-19.92L30.8-19.92Q29.91-20.34 29.95-19.78L29.95-19.78Q30.14-18.98 29.06-18.38L29.06-18.38Q21.94-18.38 19.13-18L19.13-18Q18-18 17.48-19.13L17.48-19.13Q17.44-19.5 15.94-18.7L15.94-18.7Q11.44-16.31 5.63-15.23L5.63-15.23Q3.52-14.95 2.91-16.92L2.91-16.92Q2.77-17.48 3.23-18.05L3.23-18.05Q3.98-18.84 5.34-19.08L5.34-19.08Q10.22-19.41 16.59-22.31L16.59-22.31Q19.92-23.72 21.61-26.2ZM23.11-22.88L23.11-22.88Q22.59-22.83 21.89-22.22L21.89-22.22Q18.98-20.86 21.75-21.14L21.75-21.14 27.52-21.05Q28.31-21.05 26.95-21.66L26.95-21.66 25.36-22.22Q23.77-22.92 23.11-22.88ZM16.41-17.3L16.41-17.3Q25.5-17.91 32.53-17.02L32.53-17.02Q34.78-16.64 34.08-14.02L34.08-14.02Q33.8-12.33 33.56-9.09L33.56-9.09Q32.67-6.84 30.7-7.36L30.7-7.36Q27.94-7.83 20.11-7.5L20.11-7.5Q17.58-7.45 16.59-5.72L16.59-5.72Q15.05-3.89 13.13-2.63L13.13-2.63Q8.34 0.84 4.69 1.31L4.69 1.31Q2.16 0.98 2.86-1.22L2.86-1.22Q3.66-2.58 4.83-2.81L4.83-2.81Q8.67-3.7 12.33-5.91L12.33-5.91Q15.38-7.88 15.23-11.86L15.23-11.86Q15.33-13.92 14.86-15.19L14.86-15.19Q14.3-16.83 16.41-17.3ZM27.84-14.91L27.84-14.91Q23.77-15.05 19.64-14.86L19.64-14.86Q18.56-14.72 18.56-14.39L18.56-14.39Q18.56-14.16 19.97-14.11L19.97-14.11Q24.75-14.02 29.53-14.16L29.53-14.16Q30.66-14.25 30.52-14.48L30.52-14.48Q29.63-14.91 27.84-14.91ZM29.02-11.39L29.02-11.39Q24.14-11.53 19.31-11.25L19.31-11.25Q18.19-11.2 18.28-10.59L18.28-10.59Q18.42-10.08 19.83-10.13L19.83-10.13Q23.3-10.36 29.39-10.22L29.39-10.22Q30.19-10.08 30.47-10.88L30.47-10.88Q30.52-11.2 29.02-11.39ZM18.75-5.86L18.75-5.86Q25.45-6.28 31.03-5.95L31.03-5.95Q33.75-5.63 34.78-5.11L34.78-5.11Q36.89-3.94 35.06-1.59L35.06-1.59Q34.41 0.56 33.23 2.16L33.23 2.16Q32.3 3.61 29.67 3.05L29.67 3.05Q24.75 2.02 21.89 3.09L21.89 3.09Q19.13 4.45 18.47 0.8L18.47 0.8Q17.86-1.59 17.11-3.05L17.11-3.05Q16.13-5.3 18.75-5.86ZM30.28-3.33L30.28-3.33Q24.33-3.42 21.75-3.09L21.75-3.09Q20.58-2.81 20.86-1.36L20.86-1.36Q21.52 0.05 22.92 0L22.92 0Q25.08-0.23 29.72-0.05L29.72-0.05Q30.84-0.09 31.59-1.45L31.59-1.45Q31.92-2.39 31.92-2.77L31.92-2.77Q31.83-3.05 30.28-3.33ZM66.19-32.06L66.19-32.06Q67.73-32.67 68.72-31.03L68.72-31.03Q69.7-29.2 67.88-26.81L67.88-26.81Q67.03-25.41 66-24L66-24Q65.02-22.78 65.86-21.66L65.86-21.66Q68.48-17.81 68.67-15.09L68.67-15.09Q69.05-8.39 65.53-2.58L65.53-2.58Q63.7 0.75 60.8 2.95L60.8 2.95Q59.72 3.75 58.64 3.42L58.64 3.42Q57.05 2.53 57.94 0.75L57.94 0.75Q62.3-3.42 64.41-8.16L64.41-8.16Q65.63-11.11 65.58-13.83L65.58-13.83Q65.48-15 64.45-13.45L64.45-13.45Q61.31-9.09 57.66-6.19L57.66-6.19Q55.17-4.08 52.73-4.55L52.73-4.55Q50.81-5.53 52.27-7.27L52.27-7.27Q52.92-7.97 53.72-8.34L53.72-8.34Q60.38-11.95 63.66-17.58L63.66-17.58Q64.22-18.7 63.66-19.69L63.66-19.69Q62.91-20.72 61.5-19.64L61.5-19.64Q58.36-17.2 56.34-16.59L56.34-16.59Q54.14-15.52 53.48-17.81L53.48-17.81Q53.53-18.23 55.22-19.5L55.22-19.5Q58.22-21.14 60.66-22.97L60.66-22.97Q60.66-23.16 59.25-24.19L59.25-24.19Q57.7-25.13 55.97-25.5L55.97-25.5Q53.02-25.69 54.42-28.13L54.42-28.13Q56.34-30.05 59.06-28.36L59.06-28.36Q60.33-27.23 61.73-26.3L61.73-26.3Q62.86-25.22 63.89-26.63L63.89-26.63Q64.92-28.17 65.2-29.91L65.2-29.91Q65.39-31.36 66.19-32.06ZM76.78-29.34L76.78-29.34Q77.11-32.44 79.55-30.66L79.55-30.66Q81.42-28.73 80.48-26.95L80.48-26.95Q79.78-26.16 78.7-24.19L78.7-24.19Q78.05-22.92 79.36-22.97L79.36-22.97Q85.92-23.2 90.61-22.45L90.61-22.45Q94.88-21.89 93.38-18.33L93.38-18.33Q92.67-16.03 92.91-13.5L92.91-13.5Q93.42-7.69 92.63-3.89L92.63-3.89Q91.13 2.67 83.63 2.67L83.63 2.67Q80.2 2.86 77.53 1.36L77.53 1.36Q76.73 0.8 76.88 0.09L76.88 0.09Q77.02-0.98 78.47-0.75L78.47-0.75Q79.69-0.14 83.2-0.66L83.2-0.66Q89.72-1.78 89.72-7.41L89.72-7.41Q90.19-13.45 89.39-18.38L89.39-18.38Q89.02-20.2 87.19-20.11L87.19-20.11Q81.52-20.77 77.72-19.55L77.72-19.55Q77.02-19.36 76.31-19.36L76.31-19.36Q75.56-19.45 74.3-18L74.3-18Q72.33-15.47 70.97-15.56L70.97-15.56Q70.5-15.42 70.08-15.98L70.08-15.98Q69.52-17.16 71.58-19.03L71.58-19.03Q76.41-24 76.78-29.34ZM73.13-14.72L73.13-14.72Q73.36-14.86 73.88-15L73.88-15Q75.38-14.91 76.31-15L76.31-15Q81.05-15.14 82.97-14.91L82.97-14.91Q85.78-14.67 85.27-12.38L85.27-12.38Q84.98-11.67 85.03-10.83L85.03-10.83Q85.17-8.16 84.8-7.17L84.8-7.17Q83.67-4.55 81.05-5.06L81.05-5.06Q78.8-5.63 75.84-5.06L75.84-5.06Q73.36-4.13 72.61-6.38L72.61-6.38Q72.38-7.73 72.38-11.48L72.38-11.48Q72.47-12 72.42-12.66L72.42-12.66Q72.38-13.88 73.13-14.72ZM79.83-12.33L79.83-12.33Q76.97-12.52 75.84-11.95L75.84-11.95Q75.7-11.77 75.7-10.55L75.7-10.55 75.7-9.66Q75.94-8.25 77.34-8.25L77.34-8.25Q78.7-8.39 80.06-8.39L80.06-8.39Q81.98-7.92 81.47-11.02L81.47-11.02Q81.23-12.14 79.83-12.33Z" transform="translate(-2.7082972526550293, 32.645225524902344)"></path>
                            </g>
                        </g>
                    </g>
                </g>
                <g data-gra="path-slogan" fill-rule="" class="tp-slogan" fill="#fff" transform="translate(25.40302276611328,84.91935729980469)">
                    <!---->
                    <!---->
                    <g transform="scale(1, 1)">
                        <g transform="scale(1)">
                            <path d="M4.75-1.58Q4.75 0.10 2.64 0.10L2.64 0.10Q2.23 0.10 1.64-0.02L1.64-0.02Q1.00-0.14 0.64-0.32L0.64-0.32Q0.56-0.33 0.56-0.43L0.56-0.43L0.56-1.91Q0.56-2.01 0.64-2.02L0.64-2.02Q0.72-2.03 0.74-1.94L0.74-1.94Q1.13-0.25 2.38-0.25L2.38-0.25Q3.68-0.25 3.68-1.32L3.68-1.32Q3.68-2.03 1.99-2.65L1.99-2.65Q0.52-3.19 0.52-4.35L0.52-4.35Q0.52-5.08 1.09-5.50L1.09-5.50Q1.63-5.90 2.47-5.90L2.47-5.90Q2.63-5.90 2.87-5.87L2.87-5.87L3.65-5.72Q3.83-5.69 3.87-5.69L3.87-5.69L4.00-5.69Q4.12-5.69 4.19-5.75L4.19-5.75Q4.25-5.81 4.28-5.81L4.28-5.81Q4.31-5.81 4.34-5.78L4.34-5.78Q4.36-5.74 4.36-5.72L4.36-5.72Q4.37-4.92 4.46-4.12L4.46-4.12L4.46-4.11Q4.46-4.05 4.37-4.05L4.37-4.05Q4.28-4.05 4.28-4.12L4.28-4.12Q3.87-5.55 2.75-5.55L2.75-5.55Q1.54-5.55 1.54-4.65L1.54-4.65Q1.54-4.29 1.82-4.09L1.82-4.09Q2.08-3.89 2.98-3.55L2.98-3.55Q3.85-3.21 4.28-2.78L4.28-2.78Q4.75-2.30 4.75-1.58L4.75-1.58ZM10.22-1.67L10.22-0.11Q10.22-0.07 10.19-0.04L10.19-0.04Q10.16 0 10.13 0L10.13 0Q9.71 0 9.28-0.01L9.28-0.01L7.85-0.05Q7.45-0.05 7.10-0.05L7.10-0.05Q6.93-0.05 6.70-0.05L6.70-0.05L5.52 0Q5.45 0 5.45-0.10L5.45-0.10Q5.45-0.17 5.51-0.17L5.51-0.17Q6.17-0.20 6.17-0.65L6.17-0.65L6.17-5.26Q6.17-5.63 5.58-5.63L5.58-5.63Q5.52-5.63 5.52-5.72L5.52-5.72Q5.52-5.81 5.58-5.81L5.58-5.81L6.77-5.73Q6.89-5.73 7.06-5.74L7.06-5.74L7.70-5.80Q7.88-5.81 7.99-5.81L7.99-5.81Q8.06-5.81 8.06-5.72L8.06-5.72Q8.06-5.63 8.00-5.63L8.00-5.63Q7.37-5.63 7.37-5.26L7.37-5.26L7.37-0.73Q7.37-0.45 7.67-0.40L7.67-0.40Q8.05-0.33 8.54-0.33L8.54-0.33Q8.75-0.33 8.95-0.35L8.95-0.35Q9.62-0.47 10.04-1.68L10.04-1.68Q10.07-1.76 10.14-1.76L10.14-1.76Q10.22-1.76 10.22-1.67L10.22-1.67ZM16.61-2.93Q16.61-1.54 15.79-0.71L15.79-0.71Q14.98 0.10 13.69 0.10L13.69 0.10Q12.44 0.10 11.63-0.70L11.63-0.70Q10.77-1.55 10.77-2.93L10.77-2.93Q10.77-4.29 11.63-5.12L11.63-5.12Q12.44-5.90 13.69-5.90L13.69-5.90Q14.97-5.90 15.77-5.11L15.77-5.11Q16.61-4.29 16.61-2.93L16.61-2.93ZM15.35-2.73Q15.35-3.97 14.90-4.75L14.90-4.75Q14.44-5.56 13.64-5.56L13.64-5.56Q12.92-5.56 12.47-4.91L12.47-4.91Q12.01-4.24 12.01-3.14L12.01-3.14Q12.01-1.91 12.47-1.10L12.47-1.10Q12.94-0.24 13.73-0.24L13.73-0.24Q14.41-0.24 14.88-0.95L14.88-0.95Q15.35-1.66 15.35-2.73L15.35-2.73ZM23.24-2.70Q23.24-2.62 23.18-2.62L23.18-2.62Q22.64-2.62 22.64-2.22L22.64-2.22L22.64-0.36Q22.64-0.27 22.52-0.21L22.52-0.21Q21.85 0.10 20.71 0.10L20.71 0.10Q19.26 0.10 18.40-0.59L18.40-0.59Q17.42-1.37 17.42-2.89L17.42-2.89Q17.42-4.36 18.34-5.17L18.34-5.17Q19.18-5.90 20.47-5.90L20.47-5.90Q20.78-5.90 21.24-5.84L21.24-5.84Q21.64-5.79 21.83-5.74L21.83-5.74Q22.01-5.70 22.10-5.70L22.10-5.70Q22.25-5.70 22.36-5.78L22.36-5.78Q22.40-5.82 22.44-5.82L22.44-5.82Q22.51-5.82 22.51-5.74L22.51-5.74Q22.51-4.97 22.64-4.17L22.64-4.17L22.64-4.15Q22.64-4.08 22.56-4.08L22.56-4.08Q22.48-4.08 22.46-4.16L22.46-4.16Q22.13-4.98 21.74-5.27L21.74-5.27Q21.33-5.57 20.50-5.57L20.50-5.57Q19.60-5.57 19.14-5.03L19.14-5.03Q18.65-4.45 18.65-3.16L18.65-3.16Q18.65-1.63 19.17-0.92L19.17-0.92Q19.67-0.23 20.69-0.23L20.69-0.23Q21.45-0.23 21.45-0.49L21.45-0.49L21.45-2.22Q21.45-2.61 20.83-2.61L20.83-2.61Q20.76-2.61 20.76-2.69L20.76-2.69Q20.76-2.79 20.84-2.79L20.84-2.79L22.10-2.72L22.35-2.73L22.94-2.78L23.18-2.79Q23.24-2.79 23.24-2.70L23.24-2.70ZM29.64-0.10Q29.64 0 29.57 0L29.57 0L28.38-0.07L27.10 0Q27.02 0 27.02-0.10L27.02-0.10Q27.02-0.18 27.09-0.18L27.09-0.18Q27.65-0.18 27.65-0.52L27.65-0.52L27.63-0.61L27.15-1.89L25.13-1.89L24.73-0.77L24.73-0.69Q24.73-0.22 25.48-0.17L25.48-0.17Q25.54-0.17 25.54-0.09L25.54-0.09Q25.54 0 25.48 0L25.48 0Q25.27 0 24.92-0.04L24.92-0.04Q24.57-0.07 24.42-0.07L24.42-0.07Q24.32-0.07 24.20-0.06L24.20-0.06L23.77-0.01Q23.63 0 23.48 0L23.48 0Q23.41 0 23.41-0.08L23.41-0.08Q23.41-0.17 23.48-0.17L23.48-0.17Q24.13-0.22 24.35-0.82L24.35-0.82L25.89-5.18Q25.82-5.24 25.73-5.24L25.73-5.24L25.66-5.24Q25.51-5.24 25.51-5.33L25.51-5.33Q25.51-5.42 25.70-5.47L25.70-5.47Q26.35-5.60 26.68-5.83L26.68-5.83Q26.78-5.90 26.83-5.90L26.83-5.90Q26.90-5.90 26.96-5.76L26.96-5.76L28.89-0.68Q29.08-0.18 29.56-0.18L29.56-0.18Q29.64-0.18 29.64-0.10L29.64-0.10ZM27.02-2.24L26.12-4.68L25.25-2.24L27.02-2.24ZM35.80-5.70Q35.80-5.62 35.75-5.62L35.75-5.62Q35.45-5.59 35.21-5.34L35.21-5.34Q34.97-5.09 34.97-4.85L34.97-4.85L34.97-0.20Q34.97 0.05 34.79 0.08L34.79 0.08L34.75 0.08Q34.60 0.08 34.46-0.11L34.46-0.11L30.87-5.00L30.87-0.96Q30.87-0.68 31.15-0.45L31.15-0.45Q31.42-0.23 31.76-0.19L31.76-0.19Q31.82-0.19 31.82-0.10L31.82-0.10Q31.82 0 31.75 0L31.75 0L31.28-0.04Q30.88-0.07 30.70-0.07L30.70-0.07Q30.55-0.07 30.18-0.04L30.18-0.04L29.71 0Q29.69 0 29.67-0.04L29.67-0.04Q29.66-0.07 29.66-0.12L29.66-0.12Q29.66-0.19 29.70-0.19L29.70-0.19Q30.02-0.22 30.25-0.45L30.25-0.45Q30.48-0.68 30.48-0.96L30.48-0.96L30.48-5.29Q30.29-5.58 29.78-5.62L29.78-5.62Q29.72-5.63 29.72-5.71L29.72-5.71Q29.72-5.79 29.78-5.79L29.78-5.79Q30.28-5.79 30.90-5.81L30.90-5.81Q31.55-5.84 31.68-5.88L31.68-5.88Q31.70-5.89 31.73-5.89L31.73-5.89Q31.82-5.89 31.89-5.77L31.89-5.77L34.58-2.03L34.58-4.85Q34.58-5.09 34.30-5.34L34.30-5.34Q34.02-5.58 33.70-5.62L33.70-5.62Q33.63-5.63 33.63-5.72L33.63-5.72Q33.63-5.81 33.70-5.81L33.70-5.81L34.17-5.77Q34.57-5.73 34.76-5.73L34.76-5.73L35.74-5.81Q35.77-5.81 35.78-5.77L35.78-5.77Q35.80-5.73 35.80-5.70L35.80-5.70Z" transform="translate(-0.522, 5.904000000000001)"></path>
                        </g>
                    </g>
                </g>
            </g>
        </g>
    </g>
    <mask id="6f695fec-f5c0-4eb5-b6ae-ff22a3813771">
        <g fill="white">
            <g>
                <rect fill-opacity="1" stroke-width="2" x="0" y="0" width="150" height="107.18573143543132" class="image-rect"></rect> <svg x="0" y="0" width="150" height="107.18573143543132" class="image-svg-svg primary" style="overflow: visible;" filter="url(#colorsf5922693004)"><svg viewBox="0 0 130 92.89399719238281" xmlns="http://www.w3.org/2000/svg">
                        <path d="M65 0c35.899 0 65 29.101 65 65 0 9.984-2.25 19.442-6.273 27.894A67.78 67.78 0 0 0 127 72c0-35.899-27.758-65-62-65C30.758 7 3 36.101 3 72a67.78 67.78 0 0 0 3.273 20.894C2.25 84.442 0 74.984 0 65 0 29.101 29.101 0 65 0z" fill-rule="evenodd"></path>
                    </svg></svg>
                <defs> </defs>
            </g>
        </g>
        <g transform="translate(32.95697784423828,40.631187438964844)" fill="black" stroke="black" stroke-width="6" stroke-linejoin="round">
            <g data-gra="path-name" fill-rule="" class="tp-name" transform="translate(0,0)">
                <g transform="scale(1)">
                    <g>
                        <path d="M22.08-31.83L22.08-31.83Q23.11-32.25 24.33-31.55L24.33-31.55Q25.88-30.7 25.78-28.92L25.78-28.92Q25.03-26.2 23.39-23.63L23.39-23.63Q22.73-22.5 23.86-22.5L23.86-22.5 34.73-22.55Q36.33-22.83 38.72-22.55L38.72-22.55Q40.27-22.03 40.69-19.78L40.69-19.78Q40.83-18.33 40.08-15.89L40.08-15.89Q40.27-9.19 39.75-2.06L39.75-2.06Q39.66-1.13 39.38-0.19L39.38-0.19Q38.44 1.27 35.81 0.66L35.81 0.66Q28.17-0.7 13.41 0.38L13.41 0.38Q12.56 0.47 11.53 0.98L11.53 0.98Q9.19 1.08 8.77-1.41L8.77-1.41Q8.34-3.38 8.16-8.72L8.16-8.72Q8.02-12.14 8.02-15.56L8.02-15.56Q8.34-18.47 7.97-20.77L7.97-20.77Q8.06-22.22 10.08-22.88L10.08-22.88Q11.11-22.83 13.83-22.36L13.83-22.36Q15.98-22.59 18.28-22.5L18.28-22.5Q19.41-22.5 20.16-23.91L20.16-23.91Q21.42-26.48 21.23-29.44L21.23-29.44Q21.23-30.38 21.42-31.08L21.42-31.08Q21.84-31.83 22.08-31.83ZM19.78-19.36L19.78-19.36Q15.09-19.27 12.66-18.38L12.66-18.38Q11.3-17.44 11.63-14.44L11.63-14.44Q11.63-13.31 13.03-13.08L13.03-13.08Q17.25-12.61 29.02-12.89L29.02-12.89 35.39-13.08Q36.61-13.17 36.56-14.58L36.56-14.58 36.52-16.41Q36.75-18.94 34.73-18.98L34.73-18.98Q30.14-19.64 19.78-19.36ZM35.2-9.42L35.2-9.42Q25.45-9.98 12.89-9.38L12.89-9.38Q11.67-9.28 11.72-8.2L11.72-8.2Q11.91-5.06 12.14-3.8L12.14-3.8Q12.61-3.28 13.83-3.28L13.83-3.28Q23.86-2.53 34.88-3.23L34.88-3.23Q36.09-3.52 36.33-4.88L36.33-4.88 36.56-8.11Q36.61-9.23 35.2-9.42ZM59.58-29.3L59.58-29.3Q59.95-32.25 63.14-31.83L63.14-31.83Q68.67-31.31 78.33-31.55L78.33-31.55Q80.16-31.5 81.98-31.31L81.98-31.31Q83.11-31.31 83.16-30L83.16-30Q83.25-29.3 82.27-28.73L82.27-28.73Q81.47-28.31 80.16-28.59L80.16-28.59 74.86-28.59Q73.41-28.55 73.31-27.61L73.31-27.61Q73.31-26.72 74.44-26.72L74.44-26.72Q77.91-26.77 81.38-26.67L81.38-26.67Q84.19-26.77 86.25-25.92L86.25-25.92Q89.2-24.84 88.83-21.89L88.83-21.89Q88.83-21.23 89.25-20.02L89.25-20.02Q89.77-18.38 88.97-16.73L88.97-16.73Q88.55-15.98 87.94-15.94L87.94-15.94Q86.86-15.7 86.16-17.34L86.16-17.34Q85.83-18.38 85.5-21.09L85.5-21.09Q85.31-22.13 84.94-22.78L84.94-22.78Q83.81-23.53 81-23.72L81-23.72Q77.72-23.95 74.44-24L74.44-24Q73.27-24 73.27-22.88L73.27-22.88Q73.22-19.59 73.31-16.17L73.31-16.17Q73.17-15.05 72.66-14.3L72.66-14.3Q72.09-13.36 71.2-13.88L71.2-13.88Q70.31-14.2 70.22-15.98L70.22-15.98Q70.03-19.27 70.03-22.59L70.03-22.59Q70.08-24.05 68.95-24.05L68.95-24.05Q63.28-24.05 59.16-23.3L59.16-23.3Q58.13-23.2 57.52-21.98L57.52-21.98Q57-19.92 57.09-18.05L57.09-18.05 56.91-17.11Q56.58-15.38 54.98-15.52L54.98-15.52Q54-15.7 53.58-16.59L53.58-16.59Q52.88-19.03 54.61-23.72L54.61-23.72Q55.13-26.67 58.88-26.58L58.88-26.58Q63.89-26.81 69.05-26.72L69.05-26.72Q70.17-26.72 70.13-27.7L70.13-27.7Q69.94-28.59 68.63-28.59L68.63-28.59Q66.52-28.59 64.36-28.41L64.36-28.41Q62.06-28.08 60.56-28.27L60.56-28.27Q59.67-28.69 59.58-29.3ZM75.28-22.17L75.28-22.17Q77.3-23.25 80.81-22.59L80.81-22.59Q83.06-22.78 82.88-20.86L82.88-20.86Q82.92-20.48 82.08-20.06L82.08-20.06Q80.02-20.02 77.91-19.83L77.91-19.83Q76.88-19.69 75.84-19.73L75.84-19.73Q74.06-20.77 75.28-22.17ZM62.06-22.59L62.06-22.59Q64.64-22.92 66.52-22.5L66.52-22.5Q68.34-22.13 68.48-21.84L68.48-21.84Q69.14-20.67 67.78-19.88L67.78-19.88Q67.27-19.64 65.67-19.73L65.67-19.73 61.64-19.45Q59.95-19.97 60.52-21.61L60.52-21.61Q61.08-22.31 62.06-22.59ZM76.5-18.84L76.5-18.84Q78.23-19.08 82.03-18.52L82.03-18.52Q83.48-18.28 83.06-16.92L83.06-16.92Q82.69-16.17 82.13-16.13L82.13-16.13Q79.55-16.03 76.97-15.8L76.97-15.8Q74.02-15.61 74.86-18L74.86-18Q75.38-18.7 76.5-18.84ZM60.61-17.86L60.61-17.86Q62.53-18.8 65.95-18.19L65.95-18.19Q67.31-18 67.97-17.77L67.97-17.77Q69-15.94 66.66-15.42L66.66-15.42Q64.03-15.38 61.41-15.14L61.41-15.14Q60.42-15.09 60-16.5L60-16.5Q59.91-17.2 60.61-17.86ZM63.61-13.08L63.61-13.08Q74.77-13.69 79.78-12.94L79.78-12.94Q81.89-12.84 81.19-11.02L81.19-11.02Q80.77-9.94 79.59-9.75L79.59-9.75Q72.23-11.3 63.38-9.84L63.38-9.84Q61.36-9.56 61.27-11.48L61.27-11.48Q61.69-12.75 63.61-13.08ZM62.77-7.78L62.77-7.78Q77.02-8.67 93-6.19L93-6.19Q93.56-6.09 93.8-5.95L93.8-5.95Q94.64-5.06 92.72-3L92.72-3Q91.59-1.59 89.91-2.02L89.91-2.02Q84.89-4.36 79.92-4.97L79.92-4.97Q78.89-5.11 79.97-3.56L79.97-3.56Q83.63 1.5 77.02 2.25L77.02 2.25Q72.8 2.86 68.81 2.72L68.81 2.72Q66.28 2.3 65.06 2.44L65.06 2.44Q63 3.28 61.73 0.94L61.73 0.94Q61.5-0.38 62.81-1.88L62.81-1.88Q63.84-3.09 64.64-4.31L64.64-4.31Q65.16-5.3 63.56-5.11L63.56-5.11Q57.84-4.36 53.06-2.25L53.06-2.25Q51.89-2.06 51.09-2.81L51.09-2.81Q50.3-3.47 50.81-4.69L50.81-4.69Q51.94-6.94 53.81-7.27L53.81-7.27Q57.98-7.27 62.77-7.78ZM72.75-5.53L70.64-5.53Q69.38-5.53 69.33-5.11L69.33-5.11Q68.86-3.75 66.89-2.2L66.89-2.2Q66.09-1.08 66.14-0.84L66.14-0.84Q66.38-0.61 67.78-0.28L67.78-0.28Q71.95 0.56 75.94-0.66L75.94-0.66Q77.72-0.84 76.88-2.16L76.88-2.16Q75.94-4.08 75.23-4.45L75.23-4.45Q74.2-5.48 72.75-5.53L72.75-5.53Z" transform="translate(-7.970000267028809, 31.987499237060547)"></path>
                    </g>
                    <g data-gra="path-name-1" transform="translate(0,37.7336311340332)">
                        <g transform="scale(0.94536)">
                            <path d="M13.36-31.78L13.36-31.78Q14.63-33.23 16.45-32.25L16.45-32.25Q17.58-31.5 17.2-30.19L17.2-30.19Q17.11-29.48 18.23-29.48L18.23-29.48Q20.72-29.67 21.56-29.06L21.56-29.06Q22.45-27.98 21.52-27.28L21.52-27.28Q21.05-27.05 19.83-26.95L19.83-26.95 18.23-26.81Q17.11-26.63 16.97-25.17L16.97-25.17Q17.02-23.58 15.8-23.48L15.8-23.48Q15.42-23.48 15.05-23.86L15.05-23.86Q14.67-24.33 14.3-25.27L14.3-25.27Q14.06-26.34 12.75-26.3L12.75-26.3Q11.16-26.16 9.52-25.83L9.52-25.83Q8.34-25.36 7.41-26.02L7.41-26.02Q6.05-27.66 9-29.11L9-29.11Q10.64-30.23 12.47-29.86L12.47-29.86Q13.59-29.72 13.31-30.33L13.31-30.33Q12.84-31.08 13.36-31.78ZM30.61-30.61L30.61-30.61Q31.03-32.95 33.33-32.3L33.33-32.3Q35.06-31.08 34.36-29.81L34.36-29.81Q33.98-29.25 35.48-29.2L35.48-29.2Q37.13-29.16 38.91-28.97L38.91-28.97Q41.25-28.83 42.09-28.45L42.09-28.45Q42.84-27.33 40.97-25.78L40.97-25.78Q39.42-24.75 38.44-24.98L38.44-24.98Q36.8-25.55 34.08-26.25L34.08-26.25Q33.09-26.39 32.63-24.84L32.63-24.84Q32.34-22.73 30.42-23.63L30.42-23.63Q29.81-24.33 30-25.41L30-25.41Q30.14-26.63 29.11-26.63L29.11-26.63 27.47-26.53Q26.11-26.34 25.83-26.44L25.83-26.44Q24.94-27.05 25.17-27.98L25.17-27.98Q25.27-28.78 26.34-29.34L26.34-29.34Q27.8-29.44 29.25-29.34L29.25-29.34Q30.52-29.34 30.61-30.61ZM21.61-26.2L21.61-26.2Q22.45-27.33 23.91-26.2L23.91-26.2Q24.61-25.5 25.73-24.98L25.73-24.98Q38.02-19.17 44.48-17.11L44.48-17.11Q45.42-16.88 46.27-16.45L46.27-16.45Q48.05-15.14 45.75-13.97L45.75-13.97Q43.03-12.61 40.69-13.5L40.69-13.5Q38.86-15 36.98-16.31L36.98-16.31Q34.17-18.14 30.8-19.92L30.8-19.92Q29.91-20.34 29.95-19.78L29.95-19.78Q30.14-18.98 29.06-18.38L29.06-18.38Q21.94-18.38 19.13-18L19.13-18Q18-18 17.48-19.13L17.48-19.13Q17.44-19.5 15.94-18.7L15.94-18.7Q11.44-16.31 5.63-15.23L5.63-15.23Q3.52-14.95 2.91-16.92L2.91-16.92Q2.77-17.48 3.23-18.05L3.23-18.05Q3.98-18.84 5.34-19.08L5.34-19.08Q10.22-19.41 16.59-22.31L16.59-22.31Q19.92-23.72 21.61-26.2ZM23.11-22.88L23.11-22.88Q22.59-22.83 21.89-22.22L21.89-22.22Q18.98-20.86 21.75-21.14L21.75-21.14 27.52-21.05Q28.31-21.05 26.95-21.66L26.95-21.66 25.36-22.22Q23.77-22.92 23.11-22.88ZM16.41-17.3L16.41-17.3Q25.5-17.91 32.53-17.02L32.53-17.02Q34.78-16.64 34.08-14.02L34.08-14.02Q33.8-12.33 33.56-9.09L33.56-9.09Q32.67-6.84 30.7-7.36L30.7-7.36Q27.94-7.83 20.11-7.5L20.11-7.5Q17.58-7.45 16.59-5.72L16.59-5.72Q15.05-3.89 13.13-2.63L13.13-2.63Q8.34 0.84 4.69 1.31L4.69 1.31Q2.16 0.98 2.86-1.22L2.86-1.22Q3.66-2.58 4.83-2.81L4.83-2.81Q8.67-3.7 12.33-5.91L12.33-5.91Q15.38-7.88 15.23-11.86L15.23-11.86Q15.33-13.92 14.86-15.19L14.86-15.19Q14.3-16.83 16.41-17.3ZM27.84-14.91L27.84-14.91Q23.77-15.05 19.64-14.86L19.64-14.86Q18.56-14.72 18.56-14.39L18.56-14.39Q18.56-14.16 19.97-14.11L19.97-14.11Q24.75-14.02 29.53-14.16L29.53-14.16Q30.66-14.25 30.52-14.48L30.52-14.48Q29.63-14.91 27.84-14.91ZM29.02-11.39L29.02-11.39Q24.14-11.53 19.31-11.25L19.31-11.25Q18.19-11.2 18.28-10.59L18.28-10.59Q18.42-10.08 19.83-10.13L19.83-10.13Q23.3-10.36 29.39-10.22L29.39-10.22Q30.19-10.08 30.47-10.88L30.47-10.88Q30.52-11.2 29.02-11.39ZM18.75-5.86L18.75-5.86Q25.45-6.28 31.03-5.95L31.03-5.95Q33.75-5.63 34.78-5.11L34.78-5.11Q36.89-3.94 35.06-1.59L35.06-1.59Q34.41 0.56 33.23 2.16L33.23 2.16Q32.3 3.61 29.67 3.05L29.67 3.05Q24.75 2.02 21.89 3.09L21.89 3.09Q19.13 4.45 18.47 0.8L18.47 0.8Q17.86-1.59 17.11-3.05L17.11-3.05Q16.13-5.3 18.75-5.86ZM30.28-3.33L30.28-3.33Q24.33-3.42 21.75-3.09L21.75-3.09Q20.58-2.81 20.86-1.36L20.86-1.36Q21.52 0.05 22.92 0L22.92 0Q25.08-0.23 29.72-0.05L29.72-0.05Q30.84-0.09 31.59-1.45L31.59-1.45Q31.92-2.39 31.92-2.77L31.92-2.77Q31.83-3.05 30.28-3.33ZM66.19-32.06L66.19-32.06Q67.73-32.67 68.72-31.03L68.72-31.03Q69.7-29.2 67.88-26.81L67.88-26.81Q67.03-25.41 66-24L66-24Q65.02-22.78 65.86-21.66L65.86-21.66Q68.48-17.81 68.67-15.09L68.67-15.09Q69.05-8.39 65.53-2.58L65.53-2.58Q63.7 0.75 60.8 2.95L60.8 2.95Q59.72 3.75 58.64 3.42L58.64 3.42Q57.05 2.53 57.94 0.75L57.94 0.75Q62.3-3.42 64.41-8.16L64.41-8.16Q65.63-11.11 65.58-13.83L65.58-13.83Q65.48-15 64.45-13.45L64.45-13.45Q61.31-9.09 57.66-6.19L57.66-6.19Q55.17-4.08 52.73-4.55L52.73-4.55Q50.81-5.53 52.27-7.27L52.27-7.27Q52.92-7.97 53.72-8.34L53.72-8.34Q60.38-11.95 63.66-17.58L63.66-17.58Q64.22-18.7 63.66-19.69L63.66-19.69Q62.91-20.72 61.5-19.64L61.5-19.64Q58.36-17.2 56.34-16.59L56.34-16.59Q54.14-15.52 53.48-17.81L53.48-17.81Q53.53-18.23 55.22-19.5L55.22-19.5Q58.22-21.14 60.66-22.97L60.66-22.97Q60.66-23.16 59.25-24.19L59.25-24.19Q57.7-25.13 55.97-25.5L55.97-25.5Q53.02-25.69 54.42-28.13L54.42-28.13Q56.34-30.05 59.06-28.36L59.06-28.36Q60.33-27.23 61.73-26.3L61.73-26.3Q62.86-25.22 63.89-26.63L63.89-26.63Q64.92-28.17 65.2-29.91L65.2-29.91Q65.39-31.36 66.19-32.06ZM76.78-29.34L76.78-29.34Q77.11-32.44 79.55-30.66L79.55-30.66Q81.42-28.73 80.48-26.95L80.48-26.95Q79.78-26.16 78.7-24.19L78.7-24.19Q78.05-22.92 79.36-22.97L79.36-22.97Q85.92-23.2 90.61-22.45L90.61-22.45Q94.88-21.89 93.38-18.33L93.38-18.33Q92.67-16.03 92.91-13.5L92.91-13.5Q93.42-7.69 92.63-3.89L92.63-3.89Q91.13 2.67 83.63 2.67L83.63 2.67Q80.2 2.86 77.53 1.36L77.53 1.36Q76.73 0.8 76.88 0.09L76.88 0.09Q77.02-0.98 78.47-0.75L78.47-0.75Q79.69-0.14 83.2-0.66L83.2-0.66Q89.72-1.78 89.72-7.41L89.72-7.41Q90.19-13.45 89.39-18.38L89.39-18.38Q89.02-20.2 87.19-20.11L87.19-20.11Q81.52-20.77 77.72-19.55L77.72-19.55Q77.02-19.36 76.31-19.36L76.31-19.36Q75.56-19.45 74.3-18L74.3-18Q72.33-15.47 70.97-15.56L70.97-15.56Q70.5-15.42 70.08-15.98L70.08-15.98Q69.52-17.16 71.58-19.03L71.58-19.03Q76.41-24 76.78-29.34ZM73.13-14.72L73.13-14.72Q73.36-14.86 73.88-15L73.88-15Q75.38-14.91 76.31-15L76.31-15Q81.05-15.14 82.97-14.91L82.97-14.91Q85.78-14.67 85.27-12.38L85.27-12.38Q84.98-11.67 85.03-10.83L85.03-10.83Q85.17-8.16 84.8-7.17L84.8-7.17Q83.67-4.55 81.05-5.06L81.05-5.06Q78.8-5.63 75.84-5.06L75.84-5.06Q73.36-4.13 72.61-6.38L72.61-6.38Q72.38-7.73 72.38-11.48L72.38-11.48Q72.47-12 72.42-12.66L72.42-12.66Q72.38-13.88 73.13-14.72ZM79.83-12.33L79.83-12.33Q76.97-12.52 75.84-11.95L75.84-11.95Q75.7-11.77 75.7-10.55L75.7-10.55 75.7-9.66Q75.94-8.25 77.34-8.25L77.34-8.25Q78.7-8.39 80.06-8.39L80.06-8.39Q81.98-7.92 81.47-11.02L81.47-11.02Q81.23-12.14 79.83-12.33Z" transform="translate(-2.7082972526550293, 32.645225524902344)"></path>
                        </g>
                    </g>
                </g>
            </g>
            <g data-gra="path-slogan" fill-rule="" class="tp-slogan" transform="translate(25.40302276611328,84.91935729980469)" fill="white">
                <g transform="scale(1, 1)">
                    <g transform="scale(1)">
                        <path d="M4.75-1.58Q4.75 0.10 2.64 0.10L2.64 0.10Q2.23 0.10 1.64-0.02L1.64-0.02Q1.00-0.14 0.64-0.32L0.64-0.32Q0.56-0.33 0.56-0.43L0.56-0.43L0.56-1.91Q0.56-2.01 0.64-2.02L0.64-2.02Q0.72-2.03 0.74-1.94L0.74-1.94Q1.13-0.25 2.38-0.25L2.38-0.25Q3.68-0.25 3.68-1.32L3.68-1.32Q3.68-2.03 1.99-2.65L1.99-2.65Q0.52-3.19 0.52-4.35L0.52-4.35Q0.52-5.08 1.09-5.50L1.09-5.50Q1.63-5.90 2.47-5.90L2.47-5.90Q2.63-5.90 2.87-5.87L2.87-5.87L3.65-5.72Q3.83-5.69 3.87-5.69L3.87-5.69L4.00-5.69Q4.12-5.69 4.19-5.75L4.19-5.75Q4.25-5.81 4.28-5.81L4.28-5.81Q4.31-5.81 4.34-5.78L4.34-5.78Q4.36-5.74 4.36-5.72L4.36-5.72Q4.37-4.92 4.46-4.12L4.46-4.12L4.46-4.11Q4.46-4.05 4.37-4.05L4.37-4.05Q4.28-4.05 4.28-4.12L4.28-4.12Q3.87-5.55 2.75-5.55L2.75-5.55Q1.54-5.55 1.54-4.65L1.54-4.65Q1.54-4.29 1.82-4.09L1.82-4.09Q2.08-3.89 2.98-3.55L2.98-3.55Q3.85-3.21 4.28-2.78L4.28-2.78Q4.75-2.30 4.75-1.58L4.75-1.58ZM10.22-1.67L10.22-0.11Q10.22-0.07 10.19-0.04L10.19-0.04Q10.16 0 10.13 0L10.13 0Q9.71 0 9.28-0.01L9.28-0.01L7.85-0.05Q7.45-0.05 7.10-0.05L7.10-0.05Q6.93-0.05 6.70-0.05L6.70-0.05L5.52 0Q5.45 0 5.45-0.10L5.45-0.10Q5.45-0.17 5.51-0.17L5.51-0.17Q6.17-0.20 6.17-0.65L6.17-0.65L6.17-5.26Q6.17-5.63 5.58-5.63L5.58-5.63Q5.52-5.63 5.52-5.72L5.52-5.72Q5.52-5.81 5.58-5.81L5.58-5.81L6.77-5.73Q6.89-5.73 7.06-5.74L7.06-5.74L7.70-5.80Q7.88-5.81 7.99-5.81L7.99-5.81Q8.06-5.81 8.06-5.72L8.06-5.72Q8.06-5.63 8.00-5.63L8.00-5.63Q7.37-5.63 7.37-5.26L7.37-5.26L7.37-0.73Q7.37-0.45 7.67-0.40L7.67-0.40Q8.05-0.33 8.54-0.33L8.54-0.33Q8.75-0.33 8.95-0.35L8.95-0.35Q9.62-0.47 10.04-1.68L10.04-1.68Q10.07-1.76 10.14-1.76L10.14-1.76Q10.22-1.76 10.22-1.67L10.22-1.67ZM16.61-2.93Q16.61-1.54 15.79-0.71L15.79-0.71Q14.98 0.10 13.69 0.10L13.69 0.10Q12.44 0.10 11.63-0.70L11.63-0.70Q10.77-1.55 10.77-2.93L10.77-2.93Q10.77-4.29 11.63-5.12L11.63-5.12Q12.44-5.90 13.69-5.90L13.69-5.90Q14.97-5.90 15.77-5.11L15.77-5.11Q16.61-4.29 16.61-2.93L16.61-2.93ZM15.35-2.73Q15.35-3.97 14.90-4.75L14.90-4.75Q14.44-5.56 13.64-5.56L13.64-5.56Q12.92-5.56 12.47-4.91L12.47-4.91Q12.01-4.24 12.01-3.14L12.01-3.14Q12.01-1.91 12.47-1.10L12.47-1.10Q12.94-0.24 13.73-0.24L13.73-0.24Q14.41-0.24 14.88-0.95L14.88-0.95Q15.35-1.66 15.35-2.73L15.35-2.73ZM23.24-2.70Q23.24-2.62 23.18-2.62L23.18-2.62Q22.64-2.62 22.64-2.22L22.64-2.22L22.64-0.36Q22.64-0.27 22.52-0.21L22.52-0.21Q21.85 0.10 20.71 0.10L20.71 0.10Q19.26 0.10 18.40-0.59L18.40-0.59Q17.42-1.37 17.42-2.89L17.42-2.89Q17.42-4.36 18.34-5.17L18.34-5.17Q19.18-5.90 20.47-5.90L20.47-5.90Q20.78-5.90 21.24-5.84L21.24-5.84Q21.64-5.79 21.83-5.74L21.83-5.74Q22.01-5.70 22.10-5.70L22.10-5.70Q22.25-5.70 22.36-5.78L22.36-5.78Q22.40-5.82 22.44-5.82L22.44-5.82Q22.51-5.82 22.51-5.74L22.51-5.74Q22.51-4.97 22.64-4.17L22.64-4.17L22.64-4.15Q22.64-4.08 22.56-4.08L22.56-4.08Q22.48-4.08 22.46-4.16L22.46-4.16Q22.13-4.98 21.74-5.27L21.74-5.27Q21.33-5.57 20.50-5.57L20.50-5.57Q19.60-5.57 19.14-5.03L19.14-5.03Q18.65-4.45 18.65-3.16L18.65-3.16Q18.65-1.63 19.17-0.92L19.17-0.92Q19.67-0.23 20.69-0.23L20.69-0.23Q21.45-0.23 21.45-0.49L21.45-0.49L21.45-2.22Q21.45-2.61 20.83-2.61L20.83-2.61Q20.76-2.61 20.76-2.69L20.76-2.69Q20.76-2.79 20.84-2.79L20.84-2.79L22.10-2.72L22.35-2.73L22.94-2.78L23.18-2.79Q23.24-2.79 23.24-2.70L23.24-2.70ZM29.64-0.10Q29.64 0 29.57 0L29.57 0L28.38-0.07L27.10 0Q27.02 0 27.02-0.10L27.02-0.10Q27.02-0.18 27.09-0.18L27.09-0.18Q27.65-0.18 27.65-0.52L27.65-0.52L27.63-0.61L27.15-1.89L25.13-1.89L24.73-0.77L24.73-0.69Q24.73-0.22 25.48-0.17L25.48-0.17Q25.54-0.17 25.54-0.09L25.54-0.09Q25.54 0 25.48 0L25.48 0Q25.27 0 24.92-0.04L24.92-0.04Q24.57-0.07 24.42-0.07L24.42-0.07Q24.32-0.07 24.20-0.06L24.20-0.06L23.77-0.01Q23.63 0 23.48 0L23.48 0Q23.41 0 23.41-0.08L23.41-0.08Q23.41-0.17 23.48-0.17L23.48-0.17Q24.13-0.22 24.35-0.82L24.35-0.82L25.89-5.18Q25.82-5.24 25.73-5.24L25.73-5.24L25.66-5.24Q25.51-5.24 25.51-5.33L25.51-5.33Q25.51-5.42 25.70-5.47L25.70-5.47Q26.35-5.60 26.68-5.83L26.68-5.83Q26.78-5.90 26.83-5.90L26.83-5.90Q26.90-5.90 26.96-5.76L26.96-5.76L28.89-0.68Q29.08-0.18 29.56-0.18L29.56-0.18Q29.64-0.18 29.64-0.10L29.64-0.10ZM27.02-2.24L26.12-4.68L25.25-2.24L27.02-2.24ZM35.80-5.70Q35.80-5.62 35.75-5.62L35.75-5.62Q35.45-5.59 35.21-5.34L35.21-5.34Q34.97-5.09 34.97-4.85L34.97-4.85L34.97-0.20Q34.97 0.05 34.79 0.08L34.79 0.08L34.75 0.08Q34.60 0.08 34.46-0.11L34.46-0.11L30.87-5.00L30.87-0.96Q30.87-0.68 31.15-0.45L31.15-0.45Q31.42-0.23 31.76-0.19L31.76-0.19Q31.82-0.19 31.82-0.10L31.82-0.10Q31.82 0 31.75 0L31.75 0L31.28-0.04Q30.88-0.07 30.70-0.07L30.70-0.07Q30.55-0.07 30.18-0.04L30.18-0.04L29.71 0Q29.69 0 29.67-0.04L29.67-0.04Q29.66-0.07 29.66-0.12L29.66-0.12Q29.66-0.19 29.70-0.19L29.70-0.19Q30.02-0.22 30.25-0.45L30.25-0.45Q30.48-0.68 30.48-0.96L30.48-0.96L30.48-5.29Q30.29-5.58 29.78-5.62L29.78-5.62Q29.72-5.63 29.72-5.71L29.72-5.71Q29.72-5.79 29.78-5.79L29.78-5.79Q30.28-5.79 30.90-5.81L30.90-5.81Q31.55-5.84 31.68-5.88L31.68-5.88Q31.70-5.89 31.73-5.89L31.73-5.89Q31.82-5.89 31.89-5.77L31.89-5.77L34.58-2.03L34.58-4.85Q34.58-5.09 34.30-5.34L34.30-5.34Q34.02-5.58 33.70-5.62L33.70-5.62Q33.63-5.63 33.63-5.72L33.63-5.72Q33.63-5.81 33.70-5.81L33.70-5.81L34.17-5.77Q34.57-5.73 34.76-5.73L34.76-5.73L35.74-5.81Q35.77-5.81 35.78-5.77L35.78-5.77Q35.80-5.73 35.80-5.70L35.80-5.70Z" transform="translate(-0.522, 5.904000000000001)"></path>
                    </g>
                </g>
            </g>
        </g>
    </mask>
    <defs v-gra="od"></defs>
</svg>