<?xml version="1.0" standalone="no"?>
<!DOCTYPE svg PUBLIC "-//W3C//DTD SVG 1.1//EN" "http://www.w3.org/Graphics/SVG/1.1/DTD/svg11.dtd"><svg t="1597147587451" class="icon" viewBox="0 0 1024 1024" version="1.1" xmlns="http://www.w3.org/2000/svg" p-id="1863" xmlns:xlink="http://www.w3.org/1999/xlink" width="256" height="256">
    <defs>
        <style type="text/css"></style>
    </defs>
    <path d="M511.25645355 877.45824042c-66.04898071 0-126.67538452-20.61502075-165.70953369-51.40447999-19.82235718 5.52227783-45.1793518 14.41049195-61.18176269 25.43115236-13.69198609 9.42544555-11.98553467 19.03875732-9.51690674 22.91967772 10.83526612 17.0472107 185.8746643 10.88552857 236.40820311 5.5758362v-2.52218629z" fill="#b2bac2" p-id="1864"></path>
    <path d="M499.35249237 877.45824042c66.04733276 0 126.67538452-20.61502075 165.7095337-51.40447999 19.82235718 5.52227783 45.17852783 14.41049195 61.18258667 25.43115236 13.69116211 9.42544555 11.98306274 19.03875732 9.51690673 22.91967772-10.83526612 17.0472107-185.87548828 10.88552857-236.40985106 5.5758362v-2.52218629z" fill="#b2bac2" p-id="1865"></path>
    <path d="M499.74635223 479.69850531c108.71026612-0.72180176 195.83322143-21.24453735 225.35458374-29.11926269 7.03756714-1.87866211 10.80230713-5.24377441 10.80230714-5.24377442 0.02471924-0.96569824 0.44659424-17.26391602 0.44659424-25.67092894C736.34983734 278.07933417 667.83470062 135.81187812 499.34425262 135.8028144 330.8546286 135.81187812 262.33619598 278.07851019 262.33619598 419.66453926c0 8.40701294 0.4251709 24.70523071 0.45071412 25.67092894 0 0 3.06271362 3.14840698 8.67562866 4.67193604 27.25543213 7.39929199 116.01809692 28.9536438 227.48291015 29.69110107h0.80090334z" fill="#b2bac2" p-id="1866" data-spm-anchor-id="a313x.7781069.0.i0"></path>
    <path d="M798.97602752 599.38740913c-6.69067383-21.49420166-15.82360839-46.55950927-25.07107545-70.63110352 0 0-5.31958009-0.65505982-8.00738524 0.12194824-82.98248291 24.06417847-183.55929565 39.40081787-260.20458985 38.47549439h-0.79266356C428.68430999 568.27000801 328.78974823 553.1088752 246.08659271 529.28035346 242.92665008 528.37150947 236.68751434 528.75712958 236.68751434 528.75712958 227.44004729 552.82789986 218.30793671 577.89320746 211.61808685 599.38740913 179.71543792 701.87831489 190.05055145 744.29323188 197.92115693 745.24409858c16.88818359 2.03851318 65.73669434-77.1545105 65.73669433-77.15451049 0 80.46936036 72.77673339 204.03012085 239.42724609 205.16638183a591.62200927 591.62200927 0 0 1 4.42227174 0C674.15952972 872.11970892 746.93379119 748.55977241 746.93379119 668.09041205c0 0 48.84851074 79.19302368 65.73916627 77.1545105 7.86895753-0.9508667 18.20407104-43.36578369-13.69692993-145.85751342" fill="#b2bac2" p-id="1867"></path>
    <path d="M448.04524139 349.83433906c-22.98889161 1.02172852-42.63656617-24.80657959-43.8684082-57.64196777-1.25079346-32.8576355 16.36248779-60.32070923 39.35632324-61.34820558 22.96829225-1.00854492 42.60195923 24.80905151 43.85028076 57.65679933 1.25820923 32.8576355-16.35836791 60.31494141-39.3381958 61.33337402m170.29083252-57.64196777c-1.23101807 32.83538818-20.87951661 58.66204834-43.86840821 57.64196777-22.97900391-1.02008057-40.59640503-28.47573852-39.33819579-61.33255005 1.24667359-32.85021972 20.88034058-58.66781617 43.84863281-57.65679932 22.99630737 1.02749633 40.60958862 28.48974609 39.35879516 61.3473816" fill="#b2bac2" p-id="1868"></path>
    <path d="M653.67634491 392.44206611c-6.03396607-14.5093689-66.79302979-30.67410278-142.01449585-30.67410279h-0.80749512c-75.22064209 0-135.98135376 16.16473388-142.01367188 30.67410279a5.14489746 5.14489746 0 0 0-0.44082641 2.06405639c0 1.04562378 0.32382203 1.98907471 0.82891846 2.78997804 5.08227539 8.04611206 72.55426026 47.80535888 141.6264038 47.80535888h0.80749512c69.07131958 0 136.54083252-39.7567749 141.62557983-47.80371094a5.23388672 5.23388672 0 0 0 0.82562256-2.79739381c0-0.73910523-0.16479492-1.43041993-0.43753051-2.05828856" fill="#b2bac2" p-id="1869"></path>
    <path d="M475.44157318 299.95091621c1.03820801 13.08966065-6.0784607 24.71923828-15.87469482 25.98980711-9.81106567 1.2722168-18.59628297-8.30813599-19.64025879-21.40521239-1.02420044-13.09707641 6.08175659-24.72583008 15.86151124-25.98651123 9.82754516-1.27633667 18.62759399 8.31225586 19.65344237 21.40191651m60.23007203 6.53823852c2.08712768-3.39312745 16.33694458-21.23382567 45.82946777-14.73760986 7.74618531 1.70562743 11.32965088 4.2154541 12.08605957 5.20422363 1.1164856 1.45843506 1.42218018 3.53485107 0.29003907 6.33142089-2.24285888 5.54122925-6.87030029 5.3904419-9.43780518 4.30609132-1.65618896-0.70037842-22.19787598-13.09213257-41.12045289 5.39950561-1.30105591 1.27304078-3.62960815 1.70892334-5.8378601 0.19940186-2.20660401-1.51116943-3.11956787-4.57553101-1.80944824-6.70303345" fill="#b2bac2" p-id="1870"></path>
    <path d="M505.68226531 570.31181707h-0.79678344c-52.37841797 0.61962891-115.88873291-6.18310547-177.39019775-18.06152342-5.26602172 29.87896729-8.44573974 67.43243408-5.7150879 112.2220459 6.89666748 113.20092773 75.49255372 184.3527832 181.37164308 185.3909912H507.45545867c105.87908935-1.03820801 174.47497558-72.19006348 181.37329103-185.3909912 2.73065185-44.79290771-0.45071411-82.34637451-5.71838379-112.22781372-61.51300049 11.88418579-125.0340271 18.69104003-177.42810059 18.06729124" fill="#b2bac2" p-id="1871"></path>
    <path d="M356.49507049 564.14931097v113.2701416s53.5229187 10.46859742 107.14224244 3.22174073V576.15791694c-33.96835328-1.86383057-70.60473633-6.01831055-107.14224243-12.00860596" fill="#b2bac2" p-id="1872"></path>
    <path d="M739.49742034 445.10145942s-100.50842286 33.27786255-233.79702757 34.2270813h-0.79266358c-133.06942749-0.94509888-233.45507813-34.11337281-233.79785156-34.2270813l-33.6626587 88.12573242c84.19866943 26.62261963 188.55587769 43.78189087 267.46051026 42.78570556l0.79101562-0.00164795c78.91040039 1.00195313 183.25195313-16.15814209 267.46215821-42.78405761l-33.66348267-88.12573242z" fill="#b2bac2" p-id="1873"></path>
</svg>